<svg width="78" height="10" viewBox="0 0 78 10" fill="none" xmlns="http://www.w3.org/2000/svg">
<path d="M0.888 0.48H4.2C5.28 0.48 6.092 0.668 6.636 1.044C7.188 1.42 7.464 2.004 7.464 2.796C7.464 3.148 7.392 3.456 7.248 3.72C7.104 3.976 6.892 4.18 6.612 4.332C6.34 4.484 6.008 4.576 5.616 4.608V4.584C6.328 4.632 6.872 4.836 7.248 5.196C7.632 5.556 7.824 6.04 7.824 6.648C7.824 7.432 7.548 8.02 6.996 8.412C6.452 8.804 5.656 9 4.608 9H0.888V0.48ZM4.524 7.512C4.972 7.512 5.328 7.42 5.592 7.236C5.856 7.052 5.988 6.784 5.988 6.432C5.988 6.08 5.856 5.808 5.592 5.616C5.328 5.424 4.972 5.328 4.524 5.328H2.712V7.512H4.524ZM4.152 4.008C4.608 4.008 4.968 3.92 5.232 3.744C5.496 3.568 5.628 3.316 5.628 2.988C5.628 2.636 5.5 2.38 5.244 2.22C4.988 2.052 4.624 1.968 4.152 1.968H2.712V4.008H4.152ZM10.2746 9.144C9.59462 9.144 9.04662 8.988 8.63062 8.676C8.22262 8.364 8.01862 7.936 8.01862 7.392C8.01862 6.832 8.19062 6.396 8.53462 6.084C8.87862 5.772 9.41062 5.544 10.1306 5.4L12.2066 4.992C12.2066 4.576 12.1106 4.264 11.9186 4.056C11.7346 3.84 11.4626 3.732 11.1026 3.732C10.7666 3.732 10.5026 3.812 10.3106 3.972C10.1186 4.124 9.99063 4.352 9.92663 4.656L8.12662 4.572C8.24662 3.868 8.56262 3.336 9.07462 2.976C9.58662 2.608 10.2626 2.424 11.1026 2.424C12.0626 2.424 12.7866 2.652 13.2746 3.108C13.7626 3.564 14.0066 4.232 14.0066 5.112V7.308C14.0066 7.484 14.0346 7.604 14.0906 7.668C14.1466 7.732 14.2386 7.764 14.3666 7.764H14.5466V9C14.4826 9.016 14.3866 9.032 14.2586 9.048C14.1386 9.064 14.0186 9.072 13.8986 9.072C13.4586 9.072 13.1066 8.96 12.8426 8.736C12.5866 8.512 12.4586 8.128 12.4586 7.584L12.6146 7.704C12.4946 8.144 12.2306 8.496 11.8226 8.76C11.4146 9.016 10.8986 9.144 10.2746 9.144ZM10.7066 7.908C11.0026 7.908 11.2626 7.852 11.4866 7.74C11.7186 7.62 11.8946 7.448 12.0146 7.224C12.1426 7 12.2066 6.736 12.2066 6.432V6.12L10.7426 6.432C10.4466 6.488 10.2266 6.584 10.0826 6.72C9.93862 6.848 9.86662 7.016 9.86662 7.224C9.86662 7.448 9.93462 7.62 10.0706 7.74C10.2146 7.852 10.4266 7.908 10.7066 7.908ZM14.8034 2.568H16.5074L16.5674 4.44L16.4354 4.404C16.5394 3.756 16.7234 3.288 16.9874 3C17.2514 2.712 17.6154 2.568 18.0794 2.568H18.6674V4.056H18.0794C17.7354 4.056 17.4554 4.104 17.2394 4.2C17.0234 4.288 16.8634 4.428 16.7594 4.62C16.6554 4.812 16.6034 5.068 16.6034 5.388V9H14.8034V2.568ZM18.8384 2.568H20.4584L20.5184 4.116L20.3504 4.044C20.4384 3.708 20.5704 3.42 20.7464 3.18C20.9304 2.932 21.1504 2.744 21.4064 2.616C21.6624 2.488 21.9424 2.424 22.2464 2.424C22.7744 2.424 23.2064 2.58 23.5424 2.892C23.8784 3.196 24.0944 3.616 24.1904 4.152L23.9624 4.164C24.0744 3.604 24.2984 3.176 24.6344 2.88C24.9784 2.576 25.3984 2.424 25.8944 2.424C26.3344 2.424 26.7184 2.516 27.0464 2.7C27.3744 2.884 27.6224 3.16 27.7904 3.528C27.9664 3.896 28.0544 4.34 28.0544 4.86V9H26.2544V5.364C26.2544 4.852 26.1744 4.472 26.0144 4.224C25.8624 3.976 25.6184 3.852 25.2824 3.852C25.0664 3.852 24.8824 3.912 24.7304 4.032C24.5784 4.152 24.4584 4.328 24.3704 4.56C24.2904 4.792 24.2504 5.068 24.2504 5.388V9H22.6304V5.388C22.6304 4.876 22.5544 4.492 22.4024 4.236C22.2584 3.98 22.0144 3.852 21.6704 3.852C21.4544 3.852 21.2664 3.912 21.1064 4.032C20.9544 4.152 20.8384 4.328 20.7584 4.56C20.6784 4.792 20.6384 5.068 20.6384 5.388V9H18.8384V2.568ZM30.571 9.144C29.891 9.144 29.343 8.988 28.927 8.676C28.519 8.364 28.315 7.936 28.315 7.392C28.315 6.832 28.487 6.396 28.831 6.084C29.175 5.772 29.707 5.544 30.427 5.4L32.503 4.992C32.503 4.576 32.407 4.264 32.215 4.056C32.031 3.84 31.759 3.732 31.399 3.732C31.063 3.732 30.799 3.812 30.607 3.972C30.415 4.124 30.287 4.352 30.223 4.656L28.423 4.572C28.543 3.868 28.859 3.336 29.371 2.976C29.883 2.608 30.559 2.424 31.399 2.424C32.359 2.424 33.083 2.652 33.571 3.108C34.059 3.564 34.303 4.232 34.303 5.112V7.308C34.303 7.484 34.331 7.604 34.387 7.668C34.443 7.732 34.535 7.764 34.663 7.764H34.843V9C34.779 9.016 34.683 9.032 34.555 9.048C34.435 9.064 34.315 9.072 34.195 9.072C33.755 9.072 33.403 8.96 33.139 8.736C32.883 8.512 32.755 8.128 32.755 7.584L32.911 7.704C32.791 8.144 32.527 8.496 32.119 8.76C31.711 9.016 31.195 9.144 30.571 9.144ZM31.003 7.908C31.299 7.908 31.559 7.852 31.783 7.74C32.015 7.62 32.191 7.448 32.311 7.224C32.439 7 32.503 6.736 32.503 6.432V6.12L31.039 6.432C30.743 6.488 30.523 6.584 30.379 6.72C30.235 6.848 30.163 7.016 30.163 7.224C30.163 7.448 30.231 7.62 30.367 7.74C30.511 7.852 30.723 7.908 31.003 7.908ZM35.0998 2.568H36.7198L36.7918 4.452L36.5638 4.392C36.6518 3.712 36.8798 3.216 37.2478 2.904C37.6238 2.584 38.0958 2.424 38.6638 2.424C39.3518 2.424 39.8878 2.644 40.2718 3.084C40.6558 3.516 40.8478 4.108 40.8478 4.86V9H39.0478V5.46C39.0478 4.916 38.9758 4.512 38.8318 4.248C38.6878 3.984 38.4318 3.852 38.0638 3.852C37.6878 3.852 37.3998 3.992 37.1998 4.272C36.9998 4.544 36.8998 4.94 36.8998 5.46V9H35.0998V2.568ZM45.2917 9.192C44.5157 9.192 43.8237 9.016 43.2157 8.664C42.6077 8.312 42.1357 7.8 41.7997 7.128C41.4637 6.456 41.2957 5.664 41.2957 4.752C41.2957 3.856 41.4597 3.072 41.7877 2.4C42.1157 1.72 42.5837 1.2 43.1917 0.84C43.7997 0.472 44.5077 0.288 45.3157 0.288C46.4117 0.288 47.2717 0.556 47.8957 1.092C48.5197 1.628 48.9277 2.416 49.1197 3.456L47.2237 3.528C47.1197 2.984 46.9037 2.564 46.5757 2.268C46.2557 1.972 45.8357 1.824 45.3157 1.824C44.8677 1.824 44.4837 1.944 44.1637 2.184C43.8437 2.424 43.5957 2.764 43.4197 3.204C43.2517 3.644 43.1677 4.16 43.1677 4.752C43.1677 5.352 43.2517 5.872 43.4197 6.312C43.5957 6.744 43.8437 7.076 44.1637 7.308C44.4917 7.54 44.8717 7.656 45.3037 7.656C45.8717 7.656 46.3157 7.5 46.6357 7.188C46.9557 6.868 47.1597 6.412 47.2477 5.82L49.1557 5.892C48.9797 6.948 48.5637 7.764 47.9077 8.34C47.2517 8.908 46.3797 9.192 45.2917 9.192ZM51.6451 9.144C50.9811 9.144 50.4611 8.932 50.0851 8.508C49.7171 8.084 49.5331 7.484 49.5331 6.708V2.568H51.3331V6.288C51.3331 6.784 51.4091 7.148 51.5611 7.38C51.7131 7.604 51.9531 7.716 52.2811 7.716C52.6491 7.716 52.9331 7.588 53.1331 7.332C53.3411 7.076 53.4451 6.7 53.4451 6.204V2.568H55.2451V9H53.6011L53.5531 7.152L53.7811 7.2C53.6851 7.84 53.4571 8.324 53.0971 8.652C52.7371 8.98 52.2531 9.144 51.6451 9.144ZM59.5844 9.144C59.1364 9.144 58.7444 9.052 58.4084 8.868C58.0804 8.676 57.8244 8.404 57.6404 8.052L57.6044 9H55.8884V0.48H57.6884V3.48C57.8644 3.168 58.1164 2.916 58.4444 2.724C58.7804 2.524 59.1604 2.424 59.5844 2.424C60.1204 2.424 60.5884 2.564 60.9884 2.844C61.3964 3.116 61.7084 3.508 61.9244 4.02C62.1484 4.524 62.2604 5.112 62.2604 5.784C62.2604 6.456 62.1484 7.048 61.9244 7.56C61.7084 8.064 61.3964 8.456 60.9884 8.736C60.5884 9.008 60.1204 9.144 59.5844 9.144ZM59.0804 7.764C59.4884 7.764 59.8124 7.588 60.0524 7.236C60.2924 6.884 60.4124 6.4 60.4124 5.784C60.4124 5.16 60.2924 4.676 60.0524 4.332C59.8204 3.98 59.5004 3.804 59.0924 3.804C58.7964 3.804 58.5404 3.884 58.3244 4.044C58.1164 4.196 57.9564 4.42 57.8444 4.716C57.7404 5.012 57.6884 5.368 57.6884 5.784C57.6884 6.192 57.7404 6.544 57.8444 6.84C57.9564 7.136 58.1164 7.364 58.3244 7.524C58.5404 7.684 58.7924 7.764 59.0804 7.764ZM64.539 9.144C63.859 9.144 63.311 8.988 62.895 8.676C62.487 8.364 62.283 7.936 62.283 7.392C62.283 6.832 62.455 6.396 62.799 6.084C63.143 5.772 63.675 5.544 64.395 5.4L66.471 4.992C66.471 4.576 66.375 4.264 66.183 4.056C65.999 3.84 65.727 3.732 65.367 3.732C65.031 3.732 64.767 3.812 64.575 3.972C64.383 4.124 64.255 4.352 64.191 4.656L62.391 4.572C62.511 3.868 62.827 3.336 63.339 2.976C63.851 2.608 64.527 2.424 65.367 2.424C66.327 2.424 67.051 2.652 67.539 3.108C68.027 3.564 68.271 4.232 68.271 5.112V7.308C68.271 7.484 68.299 7.604 68.355 7.668C68.411 7.732 68.503 7.764 68.631 7.764H68.811V9C68.747 9.016 68.651 9.032 68.523 9.048C68.403 9.064 68.283 9.072 68.163 9.072C67.723 9.072 67.371 8.96 67.107 8.736C66.851 8.512 66.723 8.128 66.723 7.584L66.879 7.704C66.759 8.144 66.495 8.496 66.087 8.76C65.679 9.016 65.163 9.144 64.539 9.144ZM64.971 7.908C65.267 7.908 65.527 7.852 65.751 7.74C65.983 7.62 66.159 7.448 66.279 7.224C66.407 7 66.471 6.736 66.471 6.432V6.12L65.007 6.432C64.711 6.488 64.491 6.584 64.347 6.72C64.203 6.848 64.131 7.016 64.131 7.224C64.131 7.448 64.199 7.62 64.335 7.74C64.479 7.852 64.691 7.908 64.971 7.908ZM69.1029 2.568H70.9029V9H69.1029V2.568ZM69.0669 0.335999H70.9269V1.776H69.0669V0.335999ZM71.4856 2.568H73.1056L73.1776 4.452L72.9496 4.392C73.0376 3.712 73.2656 3.216 73.6336 2.904C74.0096 2.584 74.4816 2.424 75.0496 2.424C75.7376 2.424 76.2736 2.644 76.6576 3.084C77.0416 3.516 77.2336 4.108 77.2336 4.86V9H75.4336V5.46C75.4336 4.916 75.3616 4.512 75.2176 4.248C75.0736 3.984 74.8176 3.852 74.4496 3.852C74.0736 3.852 73.7856 3.992 73.5856 4.272C73.3856 4.544 73.2856 4.94 73.2856 5.46V9H71.4856V2.568Z" fill="black"/>
</svg>
